<?xml version="1.0" encoding="UTF-8"?>
<svg width="91px" height="33px" viewBox="0 0 91 33" version="1.1" xmlns="http://www.w3.org/2000/svg" xmlns:xlink="http://www.w3.org/1999/xlink">
    <!-- Generator: Sketch 51.2 (57519) - http://www.bohemiancoding.com/sketch -->
    <title>Gem text</title>
    <desc>Created with Sketch.</desc>
    <defs></defs>
    <g id="Gem-text" stroke="none" stroke-width="1" fill="none" fill-rule="evenodd">
        <path d="M0,16.353 C0,14.8656592 0.19933134,13.4281736 0.598,12.0405 C0.99666866,10.6528264 1.56399632,9.35333939 2.3,8.142 C3.03600368,6.93066061 3.92149482,5.82283836 4.9565,4.8185 C5.99150518,3.81416164 7.13766038,2.95550357 8.395,2.2425 C9.65233962,1.52949643 11.009326,0.977501955 12.466,0.5865 C13.9226739,0.195498045 15.4406588,0 17.02,0 C18.3233398,0 19.5039947,0.103498965 20.562,0.3105 C21.6200053,0.517501035 22.5323295,0.747498735 23.299,1.0005 C24.0656705,1.25350127 24.6713311,1.49116556 25.116,1.7135 C25.5606689,1.93583445 25.8059998,2.06999977 25.852,2.116 C26.0360009,2.25400069 26.128,2.41499908 26.128,2.599 L26.128,7.429 C26.128,7.53633387 26.0973336,7.62066636 26.036,7.682 C25.9746664,7.74333364 25.9056671,7.78166659 25.829,7.797 C25.7523329,7.81233341 25.6756671,7.79700023 25.599,7.751 C25.5223329,7.70499977 25.4610002,7.63600046 25.415,7.544 C25.1236652,6.85399655 24.7633355,6.14100368 24.334,5.405 C23.9046645,4.66899632 23.3603366,4.00200299 22.701,3.404 C22.0416634,2.80599701 21.2596712,2.31533525 20.355,1.932 C19.4503288,1.54866475 18.3846728,1.357 17.158,1.357 C15.6706592,1.357 14.4018386,1.7441628 13.3515,2.5185 C12.3011614,3.29283721 11.4425033,4.35082663 10.7755,5.6925 C10.1084967,7.03417338 9.6216682,8.60582433 9.315,10.4075 C9.0083318,12.2091757 8.855,14.1296565 8.855,16.169 C8.855,18.2236769 9.0083318,20.147991 9.315,21.942 C9.6216682,23.736009 10.0854969,25.3038266 10.7065,26.6455 C11.3275031,27.9871734 12.105662,29.0451628 13.041,29.8195 C13.976338,30.5938372 15.0726604,30.981 16.33,30.981 C17.5106726,30.981 18.4344967,30.7280025 19.1015,30.222 C19.7685033,29.7159975 20.2668317,29.060504 20.5965,28.2555 C20.9261683,27.450496 21.1293329,26.5573382 21.206,25.576 C21.2826671,24.5946618 21.321,23.6286714 21.321,22.678 L21.321,20.861 C21.321,20.1709965 21.1676682,19.6036689 20.861,19.159 C20.5543318,18.7143311 20.1978354,18.3578347 19.7915,18.0895 C19.3851646,17.8211653 18.9826687,17.6333339 18.584,17.526 C18.1853313,17.4186661 17.8940009,17.3496668 17.71,17.319 C17.5719993,17.3036666 17.4685003,17.2538338 17.3995,17.1695 C17.3304997,17.0851662 17.2998333,17.0008338 17.3075,16.9165 C17.3151667,16.8321662 17.3573329,16.7555003 17.434,16.6865 C17.510667,16.6174997 17.6256659,16.583 17.779,16.583 L28.175,16.583 C28.4050012,16.583 28.585166,16.648166 28.7155,16.7785 C28.845834,16.908834 28.911,17.0813323 28.911,17.296 L28.911,29.003 C28.911,29.2483346 28.8650005,29.4246661 28.773,29.532 C28.6809995,29.6393339 28.5506675,29.7236664 28.382,29.785 C27.2013274,30.1376684 26.1241715,30.4673318 25.1505,30.774 C24.1768285,31.0806682 23.2185047,31.3489989 22.2755,31.579 C21.3324953,31.8090012 20.3588384,31.9929993 19.3545,32.131 C18.3501616,32.2690007 17.2270062,32.338 15.985,32.338 C13.6389883,32.338 11.4885098,31.9240041 9.5335,31.096 C7.57849022,30.2679959 5.89567372,29.1333405 4.485,27.692 C3.07432628,26.2506595 1.97417061,24.5601764 1.1845,22.6205 C0.394829385,20.6808236 0,18.5916779 0,16.353 Z M38.065,19.504 C37.8196654,19.504 37.697,19.634332 37.697,19.895 C37.697,21.4590078 37.8349986,22.8006611 38.111,23.92 C38.3870014,25.0393389 38.7894974,25.9554964 39.3185,26.6685 C39.8475026,27.3815036 40.5068294,27.906665 41.2965,28.244 C42.0861706,28.581335 43.0023281,28.75 44.045,28.75 C44.8423373,28.75 45.5514969,28.6656675 46.1725,28.497 C46.7935031,28.3283325 47.3339977,28.1328344 47.794,27.9105 C48.2540023,27.6881656 48.6296652,27.4773343 48.921,27.278 C49.2123348,27.0786657 49.4269993,26.9483336 49.565,26.887 C49.7796677,26.7949995 49.9483327,26.814166 50.071,26.9445 C50.1936673,27.074834 50.1936673,27.270332 50.071,27.531 C50.0249998,27.6230005 49.9215008,27.8031653 49.7605,28.0715 C49.5994992,28.3398347 49.3656682,28.6503316 49.059,29.003 C48.7523318,29.3556684 48.3690023,29.7236647 47.909,30.107 C47.4489977,30.4903353 46.9008365,30.8429984 46.2645,31.165 C45.6281635,31.4870016 44.8998374,31.751499 44.0795,31.9585 C43.2591626,32.165501 42.3430051,32.269 41.331,32.269 C39.797659,32.269 38.4100062,32.0275024 37.168,31.5445 C35.9259938,31.0614976 34.8641711,30.3600046 33.9825,29.44 C33.1008289,28.5199954 32.4185024,27.4006733 31.9355,26.082 C31.4524976,24.7633267 31.211,23.2760083 31.211,21.62 C31.211,19.8106576 31.509997,18.2083403 32.108,16.813 C32.706003,15.4176597 33.4879952,14.2485047 34.454,13.3055 C35.4200048,12.3624953 36.5163272,11.6456691 37.743,11.155 C38.9696728,10.6643309 40.219327,10.419 41.492,10.419 C42.688006,10.419 43.7421621,10.5838317 44.6545,10.9135 C45.5668379,11.2431683 46.3564967,11.6724974 47.0235,12.2015 C47.6905033,12.7305026 48.2424978,13.3208301 48.6795,13.9725 C49.1165022,14.6241699 49.4691653,15.2719968 49.7375,15.916 C50.0058347,16.5600032 50.1936661,17.1656638 50.301,17.733 C50.4083339,18.3003362 50.462,18.752665 50.462,19.09 C50.462,19.2433341 50.4121672,19.3506664 50.3125,19.412 C50.2128328,19.4733336 50.0786675,19.504 49.91,19.504 L38.065,19.504 Z M37.812,17.986 C37.7813332,18.1853343 37.8733323,18.285 38.088,18.285 C38.1340002,18.285 38.287332,18.2811667 38.548,18.2735 C38.808668,18.2658333 39.1268315,18.2543334 39.5025,18.239 C39.8781685,18.2236666 40.2806645,18.2083334 40.71,18.193 C41.1393355,18.1776666 41.549498,18.1623334 41.9405,18.147 C42.331502,18.1316666 42.6688319,18.1201667 42.9525,18.1125 C43.2361681,18.1048333 43.4163329,18.0933334 43.493,18.078 C43.7383346,18.0626666 43.9951653,17.9553343 44.2635,17.756 C44.5318347,17.5566657 44.666,17.2116691 44.666,16.721 C44.666,16.2763311 44.6046673,15.7626696 44.482,15.18 C44.3593327,14.5973304 44.1638347,14.0453359 43.8955,13.524 C43.6271653,13.0026641 43.2860021,12.5618351 42.872,12.2015 C42.4579979,11.8411649 41.952003,11.661 41.354,11.661 C40.8786643,11.661 40.4646684,11.7874987 40.112,12.0405 C39.7593316,12.2935013 39.4565013,12.6231646 39.2035,13.0295 C38.9504987,13.4358354 38.7396675,13.8843309 38.571,14.375 C38.4023325,14.8656691 38.2643339,15.344831 38.157,15.8125 C38.0496661,16.280169 37.9691669,16.709498 37.9155,17.1005 C37.8618331,17.491502 37.8273334,17.7866657 37.812,17.986 Z M89.723,31.027 C89.8456673,31.0576668 89.9338331,31.1074997 89.9875,31.1765 C90.0411669,31.2455003 90.0603334,31.3183329 90.045,31.395 C90.0296666,31.471667 89.9875003,31.5406664 89.9185,31.602 C89.8494997,31.6633336 89.7536673,31.694 89.631,31.694 L78.821,31.694 C78.6983327,31.694 78.6025003,31.6633336 78.5335,31.602 C78.4644997,31.5406664 78.4223334,31.471667 78.407,31.395 C78.3916666,31.3183329 78.4108331,31.2455003 78.4645,31.1765 C78.5181669,31.1074997 78.6063327,31.0576668 78.729,31.027 C78.8516673,31.0116666 79.043332,30.9695003 79.304,30.9005 C79.564668,30.8314997 79.8291653,30.7050009 80.0975,30.521 C80.3658347,30.3369991 80.603499,30.0686684 80.8105,29.716 C81.017501,29.3633316 81.121,28.8803364 81.121,28.267 L81.121,17.618 C81.1056666,17.0046636 81.0520005,16.3875031 80.96,15.7665 C80.8679995,15.1454969 80.691668,14.5858358 80.431,14.0875 C80.170332,13.5891642 79.806169,13.1828349 79.3385,12.8685 C78.870831,12.5541651 78.2460039,12.397 77.464,12.397 C76.78933,12.397 76.2411688,12.5119989 75.8195,12.742 C75.3978312,12.9720012 75.0720011,13.2671649 74.842,13.6275 C74.6119988,13.9878351 74.4510005,14.3903311 74.359,14.835 C74.2669995,15.2796689 74.2133334,15.7243311 74.198,16.169 L74.198,28.267 C74.198,28.8803364 74.301499,29.3633316 74.5085,29.716 C74.715501,30.0686684 74.9531653,30.3369991 75.2215,30.521 C75.4898347,30.7050009 75.754332,30.8314997 76.015,30.9005 C76.275668,30.9695003 76.4673327,31.0116666 76.59,31.027 C76.7126673,31.0576668 76.8008331,31.1074997 76.8545,31.1765 C76.9081669,31.2455003 76.9273334,31.3183329 76.912,31.395 C76.8966666,31.471667 76.8545003,31.5406664 76.7855,31.602 C76.7164997,31.6633336 76.6206673,31.694 76.498,31.694 L65.688,31.694 C65.5653327,31.694 65.4695003,31.6633336 65.4005,31.602 C65.3314997,31.5406664 65.2893334,31.471667 65.274,31.395 C65.2586666,31.3183329 65.2778331,31.2455003 65.3315,31.1765 C65.3851669,31.1074997 65.4733327,31.0576668 65.596,31.027 C65.7186673,31.0116666 65.910332,30.9695003 66.171,30.9005 C66.431668,30.8314997 66.6961653,30.7050009 66.9645,30.521 C67.2328347,30.3369991 67.470499,30.0686684 67.6775,29.716 C67.884501,29.3633316 67.988,28.8803364 67.988,28.267 L67.988,17.595 C67.9726666,16.9816636 67.9190005,16.3683364 67.827,15.755 C67.7349995,15.1416636 67.558668,14.5858358 67.298,14.0875 C67.037332,13.5891642 66.6693357,13.1828349 66.194,12.8685 C65.7186643,12.5541651 65.0976705,12.397 64.331,12.397 C63.6409965,12.397 63.0890021,12.5119989 62.675,12.742 C62.2609979,12.9720012 61.9351679,13.2671649 61.6975,13.6275 C61.4598321,13.9878351 61.2988338,14.3941644 61.2145,14.8465 C61.1301662,15.2988356 61.0803334,15.7473311 61.065,16.192 L61.065,28.267 C61.065,28.8803364 61.168499,29.3633316 61.3755,29.716 C61.582501,30.0686684 61.8201653,30.3369991 62.0885,30.521 C62.3568347,30.7050009 62.621332,30.8314997 62.882,30.9005 C63.142668,30.9695003 63.3343327,31.0116666 63.457,31.027 C63.5796673,31.0576668 63.6678331,31.1074997 63.7215,31.1765 C63.7751669,31.2455003 63.7943334,31.3183329 63.779,31.395 C63.7636666,31.471667 63.7215003,31.5406664 63.6525,31.602 C63.5834997,31.6633336 63.4876673,31.694 63.365,31.694 L52.555,31.694 C52.4323327,31.694 52.3365003,31.6633336 52.2675,31.602 C52.1984997,31.5406664 52.1563334,31.471667 52.141,31.395 C52.1256666,31.3183329 52.1448331,31.2455003 52.1985,31.1765 C52.2521669,31.1074997 52.3403327,31.0576668 52.463,31.027 C52.5856673,31.0116666 52.777332,30.9695003 53.038,30.9005 C53.298668,30.8314997 53.5631653,30.7050009 53.8315,30.521 C54.0998347,30.3369991 54.337499,30.0686684 54.5445,29.716 C54.751501,29.3633316 54.855,28.8803364 54.855,28.267 L54.855,15.295 C54.855,15.0956657 54.7630009,14.9730002 54.579,14.927 C54.5483332,14.927 54.4371676,14.9040002 54.2455,14.858 C54.0538324,14.8119998 53.8353346,14.7583336 53.59,14.697 C53.3446654,14.6356664 53.118501,14.5820002 52.9115,14.536 C52.704499,14.4899998 52.5780002,14.4593334 52.532,14.444 C52.3326657,14.3979998 52.2291667,14.2945008 52.2215,14.1335 C52.2138333,13.9724992 52.3249988,13.8613336 52.555,13.8 C53.153003,13.6619993 53.8008298,13.4741679 54.4985,13.2365 C55.1961702,12.9988321 55.8976631,12.7305015 56.603,12.4315 C57.3083369,12.1324985 57.9906634,11.8105017 58.65,11.4655 C59.3093366,11.1204983 59.8996641,10.7716684 60.421,10.419 C60.5590007,10.3269995 60.7008326,10.2886666 60.8465,10.304 C60.9921674,10.3193334 61.065,10.4343323 61.065,10.649 L61.065,12.351 C61.7550034,11.8143307 62.5791619,11.3581685 63.5375,10.9825 C64.4958381,10.6068315 65.6419933,10.419 66.976,10.419 C67.8500044,10.419 68.62433,10.4879993 69.299,10.626 C69.97367,10.7640007 70.5601642,10.9594987 71.0585,11.2125 C71.5568358,11.4655013 71.9823316,11.7644983 72.335,12.1095 C72.6876684,12.4545017 72.9789989,12.8339979 73.209,13.248 C73.546335,12.8953316 73.9373311,12.550335 74.382,12.213 C74.8266689,11.875665 75.3326638,11.5728347 75.9,11.3045 C76.4673362,11.0361653 77.0998298,10.8215008 77.7975,10.6605 C78.4951702,10.4994992 79.2656625,10.419 80.109,10.419 C81.3510062,10.419 82.3898292,10.5569986 83.2255,10.833 C84.0611708,11.1090014 84.7473307,11.4769977 85.284,11.937 C85.8206694,12.3970023 86.2269986,12.925997 86.503,13.524 C86.7790014,14.122003 86.9783327,14.7429968 87.101,15.387 C87.2236673,16.0310032 87.2926666,16.6711635 87.308,17.3075 C87.3233334,17.9438365 87.331,18.5379972 87.331,19.09 L87.331,28.267 C87.331,28.8803364 87.434499,29.3633316 87.6415,29.716 C87.848501,30.0686684 88.0861653,30.3369991 88.3545,30.521 C88.6228347,30.7050009 88.887332,30.8314997 89.148,30.9005 C89.408668,30.9695003 89.6003327,31.0116666 89.723,31.027 Z" id="Gem" fill="#000000"></path>
    </g>
</svg>